<svg xmlns="http://www.w3.org/2000/svg" xmlns:xlink="http://www.w3.org/1999/xlink" width="400" zoomAndPan="magnify" viewBox="0 0 300 74.999997" height="100" preserveAspectRatio="xMidYMid meet" version="1.2"><defs><clipPath id="cee02489e6"><path d="M 44 21 L 70 21 L 70 54 L 44 54 Z M 44 21 "/></clipPath><clipPath id="930649af22"><path d="M 19.640625 38.40625 L 57.824219 0.222656 L 94.414062 36.816406 L 56.230469 75 Z M 19.640625 38.40625 "/></clipPath><clipPath id="867e8b4c9b"><path d="M 19.640625 38.40625 L 57.824219 0.222656 L 94.414062 36.816406 L 56.230469 75 Z M 19.640625 38.40625 "/></clipPath><clipPath id="e9fdbf2a64"><path d="M 19.640625 38.40625 L 57.824219 0.222656 L 94.414062 36.816406 L 56.230469 75 Z M 19.640625 38.40625 "/></clipPath><clipPath id="88efbb80e0"><path d="M 34 10 L 81 10 L 81 65 L 34 65 Z M 34 10 "/></clipPath><clipPath id="ecfc3914e7"><path d="M 19.640625 38.40625 L 57.824219 0.222656 L 94.414062 36.816406 L 56.230469 75 Z M 19.640625 38.40625 "/></clipPath><clipPath id="0068e385c8"><path d="M 19.640625 38.40625 L 57.824219 0.222656 L 94.414062 36.816406 L 56.230469 75 Z M 19.640625 38.40625 "/></clipPath><clipPath id="2855c1023a"><path d="M 19.640625 38.40625 L 57.824219 0.222656 L 94.414062 36.816406 L 56.230469 75 Z M 19.640625 38.40625 "/></clipPath><clipPath id="96e9898810"><path d="M 68 17 L 75 17 L 75 29 L 68 29 Z M 68 17 "/></clipPath><clipPath id="4e1483d4e9"><path d="M 19.640625 38.40625 L 57.824219 0.222656 L 94.414062 36.816406 L 56.230469 75 Z M 19.640625 38.40625 "/></clipPath><clipPath id="13aace85ab"><path d="M 19.640625 38.40625 L 57.824219 0.222656 L 94.414062 36.816406 L 56.230469 75 Z M 19.640625 38.40625 "/></clipPath><clipPath id="9d56084569"><path d="M 19.640625 38.40625 L 57.824219 0.222656 L 94.414062 36.816406 L 56.230469 75 Z M 19.640625 38.40625 "/></clipPath><clipPath id="d993f64b2c"><path d="M 39 46 L 46 46 L 46 58 L 39 58 Z M 39 46 "/></clipPath><clipPath id="3e588f04ca"><path d="M 19.640625 38.40625 L 57.824219 0.222656 L 94.414062 36.816406 L 56.230469 75 Z M 19.640625 38.40625 "/></clipPath><clipPath id="b1c8a17a73"><path d="M 19.640625 38.40625 L 57.824219 0.222656 L 94.414062 36.816406 L 56.230469 75 Z M 19.640625 38.40625 "/></clipPath><clipPath id="1e173f1135"><path d="M 19.640625 38.40625 L 57.824219 0.222656 L 94.414062 36.816406 L 56.230469 75 Z M 19.640625 38.40625 "/></clipPath><clipPath id="1a77bb16b0"><path d="M 47 38 L 54 38 L 54 50 L 47 50 Z M 47 38 "/></clipPath><clipPath id="1007764f59"><path d="M 19.640625 38.40625 L 57.824219 0.222656 L 94.414062 36.816406 L 56.230469 75 Z M 19.640625 38.40625 "/></clipPath><clipPath id="0a36241b56"><path d="M 19.640625 38.40625 L 57.824219 0.222656 L 94.414062 36.816406 L 56.230469 75 Z M 19.640625 38.40625 "/></clipPath><clipPath id="e9d42b7637"><path d="M 19.640625 38.40625 L 57.824219 0.222656 L 94.414062 36.816406 L 56.230469 75 Z M 19.640625 38.40625 "/></clipPath><clipPath id="0c6c4d7daa"><path d="M 61 24 L 68 24 L 68 36 L 61 36 Z M 61 24 "/></clipPath><clipPath id="8e5d3c4c22"><path d="M 19.640625 38.40625 L 57.824219 0.222656 L 94.414062 36.816406 L 56.230469 75 Z M 19.640625 38.40625 "/></clipPath><clipPath id="cdb6e5630f"><path d="M 19.640625 38.40625 L 57.824219 0.222656 L 94.414062 36.816406 L 56.230469 75 Z M 19.640625 38.40625 "/></clipPath><clipPath id="43c48b7a63"><path d="M 19.640625 38.40625 L 57.824219 0.222656 L 94.414062 36.816406 L 56.230469 75 Z M 19.640625 38.40625 "/></clipPath></defs><g id="7b30a643bc"><g clip-rule="nonzero" clip-path="url(#cee02489e6)"><g clip-rule="nonzero" clip-path="url(#930649af22)"><g clip-rule="nonzero" clip-path="url(#867e8b4c9b)"><g clip-rule="nonzero" clip-path="url(#e9fdbf2a64)"><path style=" stroke:none;fill-rule:evenodd;fill:#16a34a;fill-opacity:1;" d="M 48.777344 25.230469 C 47.546875 26.460938 46.574219 27.921875 45.910156 29.527344 C 45.246094 31.136719 44.90625 32.859375 44.910156 34.601562 C 44.910156 36.34375 45.257812 38.070312 45.925781 39.679688 C 46.394531 40.808594 47.015625 41.867188 47.773438 42.820312 C 48.363281 43.574219 48.621094 44.558594 48.320312 45.464844 L 47.433594 48.136719 C 47.132812 49.042969 47.359375 50.058594 48.109375 50.652344 C 49.066406 51.40625 50.121094 52.027344 51.25 52.496094 C 52.859375 53.164062 54.585938 53.511719 56.328125 53.511719 C 58.070312 53.515625 59.792969 53.175781 61.402344 52.511719 C 63.011719 51.847656 64.472656 50.875 65.703125 49.644531 C 66.929688 48.414062 67.90625 46.953125 68.570312 45.34375 C 69.234375 43.738281 69.574219 42.011719 69.570312 40.269531 C 69.566406 38.527344 69.222656 36.804688 68.554688 35.191406 C 68.082031 34.066406 67.460938 33.007812 66.707031 32.050781 C 66.113281 31.300781 65.859375 30.3125 66.160156 29.410156 L 67.046875 26.734375 C 67.347656 25.832031 67.121094 24.816406 66.371094 24.222656 C 65.414062 23.46875 64.359375 22.847656 63.230469 22.378906 C 61.617188 21.707031 59.894531 21.363281 58.152344 21.359375 C 56.410156 21.355469 54.683594 21.699219 53.078125 22.363281 C 51.46875 23.027344 50.007812 24 48.777344 25.230469 Z M 60.699219 28.5 C 61.023438 28.636719 61.335938 28.792969 61.632812 28.976562 C 62.445312 29.476562 62.664062 30.515625 62.367188 31.417969 L 61.476562 34.089844 C 61.179688 34.996094 61.453125 35.976562 61.953125 36.789062 C 62.136719 37.085938 62.296875 37.398438 62.429688 37.722656 C 62.765625 38.527344 62.9375 39.390625 62.9375 40.261719 C 62.941406 41.132812 62.769531 41.992188 62.4375 42.796875 C 62.105469 43.601562 61.617188 44.332031 61.003906 44.945312 C 60.390625 45.5625 59.660156 46.046875 58.855469 46.378906 C 58.050781 46.710938 57.1875 46.882812 56.316406 46.882812 C 55.445312 46.878906 54.582031 46.707031 53.777344 46.371094 C 53.457031 46.238281 53.144531 46.078125 52.847656 45.898438 C 52.03125 45.394531 51.8125 44.359375 52.113281 43.457031 L 53 40.78125 C 53.300781 39.878906 53.027344 38.898438 52.527344 38.082031 C 52.34375 37.785156 52.183594 37.476562 52.050781 37.152344 C 51.714844 36.347656 51.542969 35.484375 51.539062 34.613281 C 51.539062 33.742188 51.710938 32.878906 52.042969 32.078125 C 52.375 31.273438 52.859375 30.542969 53.476562 29.925781 C 54.089844 29.3125 54.820312 28.824219 55.625 28.492188 C 56.429688 28.160156 57.292969 27.992188 58.160156 27.992188 C 59.03125 27.992188 59.894531 28.167969 60.699219 28.5 Z M 60.699219 28.5 "/></g></g></g></g><g clip-rule="nonzero" clip-path="url(#88efbb80e0)"><g clip-rule="nonzero" clip-path="url(#ecfc3914e7)"><g clip-rule="nonzero" clip-path="url(#0068e385c8)"><g clip-rule="nonzero" clip-path="url(#2855c1023a)"><path style=" stroke:none;fill-rule:evenodd;fill:#16a34a;fill-opacity:1;" d="M 41.261719 17.714844 C 39.050781 19.925781 37.292969 22.554688 36.097656 25.453125 C 34.90625 28.347656 34.292969 31.449219 34.296875 34.585938 C 34.300781 37.71875 34.925781 40.828125 36.128906 43.726562 C 37.132812 46.144531 38.527344 48.375 40.25 50.339844 C 40.882812 51.058594 41.128906 52.050781 40.828125 52.953125 L 39.941406 55.628906 C 39.640625 56.53125 39.871094 57.539062 40.589844 58.171875 C 42.554688 59.894531 44.789062 61.289062 47.207031 62.292969 C 50.105469 63.496094 53.210938 64.121094 56.347656 64.125 C 59.480469 64.128906 62.585938 63.519531 65.480469 62.324219 C 68.375 61.128906 71.003906 59.375 73.21875 57.160156 C 75.429688 54.945312 77.183594 52.316406 78.378906 49.421875 C 79.574219 46.527344 80.1875 43.425781 80.183594 40.289062 C 80.175781 37.152344 79.554688 34.046875 78.351562 31.148438 C 77.34375 28.730469 75.953125 26.496094 74.230469 24.535156 C 73.597656 23.8125 73.351562 22.824219 73.652344 21.917969 L 74.539062 19.246094 C 74.839844 18.339844 74.609375 17.332031 73.886719 16.703125 C 71.925781 14.980469 69.691406 13.585938 67.273438 12.582031 C 64.375 11.375 61.269531 10.753906 58.132812 10.75 C 55 10.742188 51.894531 11.355469 49 12.550781 C 46.105469 13.746094 43.476562 15.5 41.261719 17.714844 Z M 69.53125 29.230469 C 68.917969 28.492188 68.667969 27.503906 68.96875 26.601562 L 69.855469 23.925781 C 70.15625 23.023438 69.929688 22.011719 69.191406 21.398438 C 67.855469 20.285156 66.359375 19.375 64.746094 18.703125 C 62.652344 17.835938 60.410156 17.382812 58.144531 17.382812 C 55.878906 17.378906 53.636719 17.820312 51.546875 18.683594 C 49.457031 19.546875 47.558594 20.8125 45.960938 22.410156 C 44.359375 24.011719 43.09375 25.910156 42.230469 28 C 41.367188 30.089844 40.925781 32.332031 40.929688 34.597656 C 40.933594 36.859375 41.382812 39.105469 42.253906 41.199219 C 42.921875 42.808594 43.832031 44.308594 44.945312 45.644531 C 45.558594 46.378906 45.808594 47.367188 45.511719 48.273438 L 44.621094 50.945312 C 44.324219 51.851562 44.550781 52.863281 45.285156 53.476562 C 46.621094 54.589844 48.121094 55.5 49.734375 56.167969 C 51.828125 57.039062 54.070312 57.488281 56.335938 57.492188 C 58.597656 57.496094 60.839844 57.054688 62.929688 56.191406 C 65.023438 55.328125 66.921875 54.0625 68.519531 52.460938 C 70.117188 50.863281 71.386719 48.964844 72.25 46.875 C 73.113281 44.785156 73.554688 42.542969 73.550781 40.277344 C 73.546875 38.011719 73.097656 35.769531 72.226562 33.675781 C 71.558594 32.066406 70.648438 30.566406 69.53125 29.230469 Z M 69.53125 29.230469 "/></g></g></g></g><g clip-rule="nonzero" clip-path="url(#96e9898810)"><g clip-rule="nonzero" clip-path="url(#4e1483d4e9)"><g clip-rule="nonzero" clip-path="url(#13aace85ab)"><g clip-rule="nonzero" clip-path="url(#9d56084569)"><path style=" stroke:none;fill-rule:nonzero;fill:#6cc58d;fill-opacity:1;" d="M 74.640625 17.390625 L 69.957031 22.074219 C 70.195312 22.316406 70.273438 22.675781 70.164062 22.996094 L 68.660156 27.53125 C 68.554688 27.851562 68.632812 28.207031 68.855469 28.464844 L 73.539062 23.78125 C 73.316406 23.527344 73.234375 23.171875 73.34375 22.847656 L 74.847656 18.316406 C 74.953125 17.992188 74.875 17.636719 74.640625 17.390625 Z M 74.640625 17.390625 "/></g></g></g></g><g clip-rule="nonzero" clip-path="url(#d993f64b2c)"><g clip-rule="nonzero" clip-path="url(#3e588f04ca)"><g clip-rule="nonzero" clip-path="url(#b1c8a17a73)"><g clip-rule="nonzero" clip-path="url(#1e173f1135)"><path style=" stroke:none;fill-rule:nonzero;fill:#6cc58d;fill-opacity:1;" d="M 39.839844 57.480469 L 44.523438 52.796875 C 44.285156 52.554688 44.207031 52.199219 44.316406 51.875 L 45.820312 47.34375 C 45.925781 47.019531 45.847656 46.667969 45.621094 46.410156 L 40.9375 51.09375 C 41.164062 51.347656 41.242188 51.703125 41.136719 52.027344 L 39.632812 56.558594 C 39.527344 56.878906 39.601562 57.238281 39.839844 57.480469 Z M 39.839844 57.480469 "/></g></g></g></g><g clip-rule="nonzero" clip-path="url(#1a77bb16b0)"><g clip-rule="nonzero" clip-path="url(#1007764f59)"><g clip-rule="nonzero" clip-path="url(#0a36241b56)"><g clip-rule="nonzero" clip-path="url(#e9d42b7637)"><path style=" stroke:none;fill-rule:nonzero;fill:#6cc58d;fill-opacity:1;" d="M 48.433594 43.597656 C 48.65625 43.859375 48.734375 44.210938 48.628906 44.535156 L 47.125 49.066406 C 47.015625 49.390625 47.09375 49.746094 47.332031 49.988281 L 52.023438 45.296875 C 51.773438 45.066406 51.699219 44.707031 51.804688 44.382812 L 53.308594 39.851562 C 53.417969 39.53125 53.335938 39.175781 53.125 38.910156 Z M 48.433594 43.597656 "/></g></g></g></g><g clip-rule="nonzero" clip-path="url(#0c6c4d7daa)"><g clip-rule="nonzero" clip-path="url(#8e5d3c4c22)"><g clip-rule="nonzero" clip-path="url(#cdb6e5630f)"><g clip-rule="nonzero" clip-path="url(#43c48b7a63)"><path style=" stroke:none;fill-rule:nonzero;fill:#6cc58d;fill-opacity:1;" d="M 62.457031 29.574219 C 62.707031 29.804688 62.78125 30.164062 62.671875 30.488281 L 61.167969 35.019531 C 61.0625 35.34375 61.144531 35.695312 61.355469 35.964844 L 66.046875 31.273438 C 65.824219 31.015625 65.746094 30.660156 65.851562 30.339844 L 67.355469 25.808594 C 67.464844 25.484375 67.386719 25.125 67.144531 24.886719 Z M 62.457031 29.574219 "/></g></g></g></g><g style="fill:#ffffff;fill-opacity:1;"><g transform="translate(84.773389, 46.712208)"><path style="stroke:none" d="M 7.34375 0 L 2.890625 0 L 2.890625 -24.296875 L 6.765625 -24.296875 L 15.140625 -12.96875 L 23.578125 -24.296875 L 27.453125 -24.296875 L 27.453125 0 L 23 0 L 23 -17.15625 L 15.734375 -7.234375 L 14.53125 -7.234375 L 7.34375 -17.203125 Z M 7.34375 0 "/></g></g><g style="fill:#ffffff;fill-opacity:1;"><g transform="translate(115.088254, 46.712208)"><path style="stroke:none" d="M 20 -9.5 C 20 -9.269531 19.992188 -9.054688 19.984375 -8.859375 C 19.972656 -8.660156 19.953125 -8.382812 19.921875 -8.03125 L 5.578125 -8.03125 C 5.722656 -7.03125 6.035156 -6.175781 6.515625 -5.46875 C 7.003906 -4.769531 7.601562 -4.234375 8.3125 -3.859375 C 9.03125 -3.484375 9.8125 -3.296875 10.65625 -3.296875 C 11.757812 -3.296875 12.648438 -3.515625 13.328125 -3.953125 C 14.003906 -4.390625 14.5 -4.992188 14.8125 -5.765625 L 19.515625 -5.765625 C 19.296875 -4.941406 18.925781 -4.148438 18.40625 -3.390625 C 17.882812 -2.628906 17.25 -1.953125 16.5 -1.359375 C 15.75 -0.773438 14.890625 -0.3125 13.921875 0.03125 C 12.953125 0.375 11.894531 0.546875 10.75 0.546875 C 9.375 0.546875 8.101562 0.296875 6.9375 -0.203125 C 5.78125 -0.710938 4.773438 -1.410156 3.921875 -2.296875 C 3.066406 -3.191406 2.40625 -4.226562 1.9375 -5.40625 C 1.46875 -6.59375 1.234375 -7.851562 1.234375 -9.1875 C 1.234375 -10.53125 1.46875 -11.785156 1.9375 -12.953125 C 2.40625 -14.128906 3.066406 -15.160156 3.921875 -16.046875 C 4.773438 -16.941406 5.78125 -17.644531 6.9375 -18.15625 C 8.101562 -18.664062 9.375 -18.921875 10.75 -18.921875 C 12.132812 -18.921875 13.394531 -18.664062 14.53125 -18.15625 C 15.664062 -17.65625 16.640625 -16.96875 17.453125 -16.09375 C 18.273438 -15.21875 18.90625 -14.210938 19.34375 -13.078125 C 19.78125 -11.953125 20 -10.757812 20 -9.5 Z M 5.75 -11.375 L 15.59375 -11.375 C 15.53125 -12.0625 15.269531 -12.6875 14.8125 -13.25 C 14.363281 -13.820312 13.78125 -14.28125 13.0625 -14.625 C 12.351562 -14.96875 11.578125 -15.140625 10.734375 -15.140625 C 10.003906 -15.140625 9.304688 -15.003906 8.640625 -14.734375 C 7.972656 -14.472656 7.382812 -14.066406 6.875 -13.515625 C 6.375 -12.960938 6 -12.25 5.75 -11.375 Z M 5.75 -11.375 "/></g></g><g style="fill:#ffffff;fill-opacity:1;"><g transform="translate(136.065854, 46.712208)"><path style="stroke:none" d="M 20 -9.5 C 20 -9.269531 19.992188 -9.054688 19.984375 -8.859375 C 19.972656 -8.660156 19.953125 -8.382812 19.921875 -8.03125 L 5.578125 -8.03125 C 5.722656 -7.03125 6.035156 -6.175781 6.515625 -5.46875 C 7.003906 -4.769531 7.601562 -4.234375 8.3125 -3.859375 C 9.03125 -3.484375 9.8125 -3.296875 10.65625 -3.296875 C 11.757812 -3.296875 12.648438 -3.515625 13.328125 -3.953125 C 14.003906 -4.390625 14.5 -4.992188 14.8125 -5.765625 L 19.515625 -5.765625 C 19.296875 -4.941406 18.925781 -4.148438 18.40625 -3.390625 C 17.882812 -2.628906 17.25 -1.953125 16.5 -1.359375 C 15.75 -0.773438 14.890625 -0.3125 13.921875 0.03125 C 12.953125 0.375 11.894531 0.546875 10.75 0.546875 C 9.375 0.546875 8.101562 0.296875 6.9375 -0.203125 C 5.78125 -0.710938 4.773438 -1.410156 3.921875 -2.296875 C 3.066406 -3.191406 2.40625 -4.226562 1.9375 -5.40625 C 1.46875 -6.59375 1.234375 -7.851562 1.234375 -9.1875 C 1.234375 -10.53125 1.46875 -11.785156 1.9375 -12.953125 C 2.40625 -14.128906 3.066406 -15.160156 3.921875 -16.046875 C 4.773438 -16.941406 5.78125 -17.644531 6.9375 -18.15625 C 8.101562 -18.664062 9.375 -18.921875 10.75 -18.921875 C 12.132812 -18.921875 13.394531 -18.664062 14.53125 -18.15625 C 15.664062 -17.65625 16.640625 -16.96875 17.453125 -16.09375 C 18.273438 -15.21875 18.90625 -14.210938 19.34375 -13.078125 C 19.78125 -11.953125 20 -10.757812 20 -9.5 Z M 5.75 -11.375 L 15.59375 -11.375 C 15.53125 -12.0625 15.269531 -12.6875 14.8125 -13.25 C 14.363281 -13.820312 13.78125 -14.28125 13.0625 -14.625 C 12.351562 -14.96875 11.578125 -15.140625 10.734375 -15.140625 C 10.003906 -15.140625 9.304688 -15.003906 8.640625 -14.734375 C 7.972656 -14.472656 7.382812 -14.066406 6.875 -13.515625 C 6.375 -12.960938 6 -12.25 5.75 -11.375 Z M 5.75 -11.375 "/></g></g><g style="fill:#ffffff;fill-opacity:1;"><g transform="translate(156.70416, 46.712208)"><path style="stroke:none" d="M 13.828125 0 L 10.09375 0 C 9.539062 0 8.972656 -0.046875 8.390625 -0.140625 C 7.816406 -0.242188 7.269531 -0.429688 6.75 -0.703125 C 6.226562 -0.984375 5.757812 -1.378906 5.34375 -1.890625 C 4.9375 -2.410156 4.609375 -3.082031 4.359375 -3.90625 C 4.117188 -4.738281 4 -5.765625 4 -6.984375 L 4 -14.640625 L 0.203125 -14.640625 L 0.203125 -18.359375 L 4 -18.359375 L 4 -23.734375 L 8.328125 -23.765625 L 8.328125 -18.359375 L 13.828125 -18.359375 L 13.828125 -14.640625 L 8.328125 -14.640625 L 8.328125 -6.78125 C 8.328125 -5.925781 8.453125 -5.265625 8.703125 -4.796875 C 8.953125 -4.335938 9.28125 -4.019531 9.6875 -3.84375 C 10.101562 -3.675781 10.535156 -3.59375 10.984375 -3.59375 L 13.828125 -3.59375 Z M 13.828125 0 "/></g></g><g style="fill:#ffffff;fill-opacity:1;"><g transform="translate(171.486673, 46.712208)"><path style="stroke:none" d="M 12.59375 0 L 8.28125 0 L 0.265625 -24.3125 L 4.96875 -24.3125 L 10.109375 -7.875 L 10.578125 -5.96875 L 10.640625 -5.96875 L 11 -7.9375 L 15.84375 -24.296875 L 20.546875 -24.296875 L 25.359375 -7.96875 L 25.765625 -5.96875 L 25.828125 -5.96875 L 26.328125 -8.09375 L 31.421875 -24.3125 L 36.125 -24.3125 L 28.109375 0 L 23.796875 0 L 18.203125 -18.203125 Z M 12.59375 0 "/></g></g><g style="fill:#ffffff;fill-opacity:1;"><g transform="translate(207.853798, 46.712208)"><path style="stroke:none" d="M 4.65625 -21.21875 C 3.820312 -21.21875 3.171875 -21.457031 2.703125 -21.9375 C 2.234375 -22.425781 2 -23.015625 2 -23.703125 C 2 -24.367188 2.234375 -24.945312 2.703125 -25.4375 C 3.171875 -25.925781 3.828125 -26.171875 4.671875 -26.171875 C 5.546875 -26.171875 6.21875 -25.925781 6.6875 -25.4375 C 7.15625 -24.945312 7.390625 -24.367188 7.390625 -23.703125 C 7.390625 -23.015625 7.15625 -22.425781 6.6875 -21.9375 C 6.21875 -21.457031 5.539062 -21.21875 4.65625 -21.21875 Z M 6.859375 0 L 2.53125 0 L 2.53125 -18.359375 L 6.859375 -18.359375 Z M 6.859375 0 "/></g></g><g style="fill:#ffffff;fill-opacity:1;"><g transform="translate(217.226769, 46.712208)"><path style="stroke:none" d="M 9.140625 0.546875 C 7.796875 0.546875 6.625 0.367188 5.625 0.015625 C 4.632812 -0.335938 3.816406 -0.816406 3.171875 -1.421875 C 2.523438 -2.035156 2.039062 -2.722656 1.71875 -3.484375 C 1.40625 -4.242188 1.25 -5.03125 1.25 -5.84375 L 5.390625 -5.828125 C 5.429688 -4.992188 5.765625 -4.289062 6.390625 -3.71875 C 7.023438 -3.15625 7.957031 -2.875 9.1875 -2.875 C 10.300781 -2.875 11.125 -3.085938 11.65625 -3.515625 C 12.1875 -3.941406 12.453125 -4.503906 12.453125 -5.203125 C 12.453125 -5.722656 12.300781 -6.128906 12 -6.421875 C 11.707031 -6.722656 11.269531 -6.957031 10.6875 -7.125 C 10.113281 -7.300781 9.410156 -7.453125 8.578125 -7.578125 C 7.691406 -7.691406 6.851562 -7.875 6.0625 -8.125 C 5.269531 -8.375 4.566406 -8.71875 3.953125 -9.15625 C 3.347656 -9.601562 2.867188 -10.160156 2.515625 -10.828125 C 2.171875 -11.492188 2 -12.300781 2 -13.25 C 2 -14.382812 2.265625 -15.375 2.796875 -16.21875 C 3.328125 -17.0625 4.109375 -17.722656 5.140625 -18.203125 C 6.171875 -18.679688 7.425781 -18.921875 8.90625 -18.921875 C 10.382812 -18.921875 11.679688 -18.671875 12.796875 -18.171875 C 13.910156 -17.679688 14.773438 -16.988281 15.390625 -16.09375 C 16.015625 -15.207031 16.328125 -14.179688 16.328125 -13.015625 L 12.09375 -13.0625 C 12.039062 -13.738281 11.75 -14.289062 11.21875 -14.71875 C 10.695312 -15.15625 9.9375 -15.375 8.9375 -15.375 C 8 -15.375 7.316406 -15.175781 6.890625 -14.78125 C 6.460938 -14.382812 6.25 -13.90625 6.25 -13.34375 C 6.25 -12.882812 6.347656 -12.515625 6.546875 -12.234375 C 6.753906 -11.960938 7.132812 -11.734375 7.6875 -11.546875 C 8.238281 -11.359375 9.039062 -11.179688 10.09375 -11.015625 C 11.039062 -10.878906 11.925781 -10.691406 12.75 -10.453125 C 13.570312 -10.210938 14.289062 -9.882812 14.90625 -9.46875 C 15.519531 -9.0625 16 -8.53125 16.34375 -7.875 C 16.6875 -7.226562 16.859375 -6.421875 16.859375 -5.453125 C 16.859375 -4.097656 16.519531 -2.976562 15.84375 -2.09375 C 15.175781 -1.207031 14.257812 -0.546875 13.09375 -0.109375 C 11.9375 0.328125 10.617188 0.546875 9.140625 0.546875 Z M 9.140625 0.546875 "/></g></g><g style="fill:#ffffff;fill-opacity:1;"><g transform="translate(235.115753, 46.712208)"><path style="stroke:none" d="M 20 -9.5 C 20 -9.269531 19.992188 -9.054688 19.984375 -8.859375 C 19.972656 -8.660156 19.953125 -8.382812 19.921875 -8.03125 L 5.578125 -8.03125 C 5.722656 -7.03125 6.035156 -6.175781 6.515625 -5.46875 C 7.003906 -4.769531 7.601562 -4.234375 8.3125 -3.859375 C 9.03125 -3.484375 9.8125 -3.296875 10.65625 -3.296875 C 11.757812 -3.296875 12.648438 -3.515625 13.328125 -3.953125 C 14.003906 -4.390625 14.5 -4.992188 14.8125 -5.765625 L 19.515625 -5.765625 C 19.296875 -4.941406 18.925781 -4.148438 18.40625 -3.390625 C 17.882812 -2.628906 17.25 -1.953125 16.5 -1.359375 C 15.75 -0.773438 14.890625 -0.3125 13.921875 0.03125 C 12.953125 0.375 11.894531 0.546875 10.75 0.546875 C 9.375 0.546875 8.101562 0.296875 6.9375 -0.203125 C 5.78125 -0.710938 4.773438 -1.410156 3.921875 -2.296875 C 3.066406 -3.191406 2.40625 -4.226562 1.9375 -5.40625 C 1.46875 -6.59375 1.234375 -7.851562 1.234375 -9.1875 C 1.234375 -10.53125 1.46875 -11.785156 1.9375 -12.953125 C 2.40625 -14.128906 3.066406 -15.160156 3.921875 -16.046875 C 4.773438 -16.941406 5.78125 -17.644531 6.9375 -18.15625 C 8.101562 -18.664062 9.375 -18.921875 10.75 -18.921875 C 12.132812 -18.921875 13.394531 -18.664062 14.53125 -18.15625 C 15.664062 -17.65625 16.640625 -16.96875 17.453125 -16.09375 C 18.273438 -15.21875 18.90625 -14.210938 19.34375 -13.078125 C 19.78125 -11.953125 20 -10.757812 20 -9.5 Z M 5.75 -11.375 L 15.59375 -11.375 C 15.53125 -12.0625 15.269531 -12.6875 14.8125 -13.25 C 14.363281 -13.820312 13.78125 -14.28125 13.0625 -14.625 C 12.351562 -14.96875 11.578125 -15.140625 10.734375 -15.140625 C 10.003906 -15.140625 9.304688 -15.003906 8.640625 -14.734375 C 7.972656 -14.472656 7.382812 -14.066406 6.875 -13.515625 C 6.375 -12.960938 6 -12.25 5.75 -11.375 Z M 5.75 -11.375 "/></g></g><g style="fill:#ffffff;fill-opacity:1;"><g transform="translate(256.093353, 46.712208)"><path style="stroke:none" d="M 4.796875 0.453125 C 4.296875 0.453125 3.859375 0.34375 3.484375 0.125 C 3.109375 -0.09375 2.8125 -0.378906 2.59375 -0.734375 C 2.382812 -1.097656 2.28125 -1.492188 2.28125 -1.921875 C 2.28125 -2.359375 2.382812 -2.753906 2.59375 -3.109375 C 2.800781 -3.472656 3.09375 -3.757812 3.46875 -3.96875 C 3.851562 -4.1875 4.304688 -4.296875 4.828125 -4.296875 C 5.335938 -4.296875 5.78125 -4.1875 6.15625 -3.96875 C 6.53125 -3.757812 6.820312 -3.472656 7.03125 -3.109375 C 7.25 -2.753906 7.359375 -2.359375 7.359375 -1.921875 C 7.359375 -1.273438 7.125 -0.71875 6.65625 -0.25 C 6.195312 0.21875 5.578125 0.453125 4.796875 0.453125 Z M 4.796875 0.453125 "/></g></g></g></svg>